<svg width="1257" height="371" viewBox="0 0 1257 371" fill="currentColor" xmlns="http://www.w3.org/2000/svg">
<path d="M469.412 0.410329C471.543 0.382882 473.674 0.355435 475.869 0.327157C561.782 -0.552611 561.782 -0.55261 603.651 12.288C607.858 13.4598 612.066 14.6274 616.275 15.7911C661.798 28.8747 705.211 48.3928 748.207 68.0562C756.133 71.6465 764.128 75.0289 772.183 78.3212C787.726 84.6824 787.726 84.6824 794.085 87.9128C810.016 95.7618 822.91 97.9519 840.54 97.7742C843.014 97.7975 845.489 97.8207 848.039 97.8446C853.285 97.8926 858.531 97.9186 863.777 97.924C877.355 97.9483 890.93 98.1621 904.506 98.3982C908.459 98.4659 908.459 98.4659 912.493 98.5349C938.85 99.086 964.53 101.883 990.461 106.588C998.602 108.015 1006.8 108.972 1015 110.024C1036.07 113.352 1056.44 119.26 1076.85 125.364C1082.44 127.032 1088.05 128.635 1093.67 130.233C1132.89 142.162 1170.35 161.958 1203.5 186.041C1205.43 187.338 1207.35 188.635 1209.34 189.971C1214.04 193.173 1218.6 196.592 1223.12 200.053C1223.12 201.903 1223.12 203.753 1223.12 205.658C1203.94 205.307 1189.45 204.458 1173.74 193.124C1164.6 187.269 1154.94 183.136 1144.99 178.86C1143.03 178.017 1141.06 177.174 1139.04 176.305C1126.32 170.886 1113.54 165.613 1100.65 160.6C1095.53 158.554 1090.48 156.329 1085.45 154.043C1072.28 148.382 1058.59 144.761 1044.78 141.026C1042.23 140.309 1039.68 139.592 1037.06 138.853C1001.66 129.199 967.404 126.318 930.904 126.664C926.731 126.683 922.558 126.701 918.385 126.718C882.579 126.929 846.835 128.162 811.075 129.992C824.95 130.917 838.825 131.841 853.12 132.794C837.348 148.563 837.348 148.563 826.037 148.664C823.507 148.717 820.977 148.769 818.37 148.823C815.645 148.804 812.919 148.785 810.111 148.766C807.238 148.793 804.364 148.819 801.404 148.847C792.012 148.896 782.626 148.825 773.234 148.733C770.032 148.722 766.83 148.71 763.531 148.698C705.061 148.401 649.573 141.808 592.439 129.992C584.235 128.382 576.027 126.801 567.818 125.225C563.206 124.338 558.597 123.439 553.991 122.525C515.123 114.957 475.309 110.157 435.743 108.437C433.802 108.151 431.862 107.866 429.863 107.572C428.938 105.722 428.013 103.873 427.06 101.967C444.4 93.2984 469.258 95.9154 488.323 95.7866C492.225 95.745 492.225 95.745 496.206 95.7026C504.698 95.6149 513.191 95.545 521.684 95.4753C527.614 95.4176 533.544 95.3588 539.474 95.2989C555.003 95.145 570.533 95.0061 586.062 94.8705C601.94 94.7292 617.818 94.5734 633.696 94.4189C664.792 94.1185 695.888 93.834 726.984 93.5596C718.636 89.5842 710.284 85.6161 701.932 81.6491C699.603 80.54 697.274 79.431 694.875 78.2883C665.812 64.4944 637.131 52.8076 606.454 43.1151C603.885 42.2698 601.316 41.4245 598.669 40.5535C505.768 12.2167 409.531 35.3183 320.545 65.5349C321.932 69.6966 321.932 69.6966 323.348 73.9423C331.133 77.1738 338.625 79.8606 346.648 82.3497C348.918 83.0799 351.189 83.8101 353.528 84.5624C371.322 90.2011 389.217 95.0924 407.439 99.1645C406.514 101.014 405.589 102.864 404.635 104.769C402.721 104.74 400.807 104.711 398.835 104.681C357.393 104.132 316.791 104.793 275.696 110.374C272.268 110.825 272.268 110.825 268.771 111.284C261.959 112.205 255.163 113.198 248.367 114.228C246.363 114.513 244.359 114.797 242.295 115.091C226.29 117.725 209.95 122.745 198.32 134.561C194.408 138.399 194.408 138.399 188.802 138.399C188.025 139.96 187.248 141.52 186.448 143.128C184.216 147.577 181.959 152.014 179.681 156.44C178.471 158.81 177.26 161.18 176.013 163.621C174.796 165.991 173.578 168.361 172.323 170.803C169.536 176.863 167.719 182.335 166.378 188.844C163.281 188.948 160.185 189.053 156.994 189.161C127.771 190.335 99.0715 193.098 70.1107 197.205C67.5166 197.571 64.9224 197.936 62.2497 198.313C59.9612 198.647 57.6726 198.982 55.3147 199.326C48.3696 200.084 41.6162 200.177 34.6355 200.053C44.3248 189.24 55.4702 182.311 67.7463 174.831C70.6324 173.043 70.6324 173.043 73.5768 171.219C82.8533 165.498 92.164 160.02 101.766 154.864C111.047 150.422 111.047 150.422 113.12 141.202C92.7703 141.202 72.4203 141.202 51.4537 141.202C40.2416 105.82 40.2416 105.82 40.2416 96.3621C43.2889 96.4281 43.2889 96.4281 46.3978 96.4955C55.7912 96.6725 65.1842 96.7803 74.5787 96.8875C79.3699 96.9932 79.3699 96.9932 84.2579 97.101C117.815 97.3869 146.315 88.721 177.415 76.9199C196.911 69.6622 216.299 62.7539 236.322 57.0837C243.723 54.693 250.748 51.9758 257.936 49.0266C273.072 42.8935 288.439 37.9859 304.077 33.3065C306.895 32.4585 309.714 31.6104 312.618 30.7367C363.226 15.6627 416.326 0.974509 469.412 0.410329Z" fill="#757575"/>
<path d="M592.438 272.918C622.038 272.918 651.638 272.918 682.135 272.918C682.135 278.466 682.135 284.015 682.135 289.732C679.332 292.535 679.332 292.535 672.839 292.853C670.035 292.838 667.231 292.824 664.343 292.809C661.317 292.8 658.291 292.791 655.173 292.781C651.988 292.758 648.802 292.734 645.521 292.71C642.325 292.697 639.129 292.685 635.836 292.672C627.911 292.639 619.985 292.592 612.06 292.535C612.06 299.009 612.06 305.482 612.06 312.152C630.56 312.152 649.06 312.152 668.12 312.152C668.12 317.701 668.12 323.25 668.12 328.967C649.62 328.967 631.12 328.967 612.06 328.967C612.06 336.366 612.06 343.764 612.06 351.387C635.185 351.387 658.31 351.387 682.135 351.387C682.135 356.936 682.135 362.485 682.135 368.202C652.535 368.202 622.935 368.202 592.438 368.202C592.438 336.758 592.438 305.314 592.438 272.918Z" fill="#757575"/>
<path d="M1161.45 272.918C1181.07 272.918 1181.07 272.918 1186.38 276.465C1187.7 278.101 1189.01 279.738 1190.37 281.424C1191.88 283.232 1193.38 285.04 1194.93 286.903C1196.43 288.819 1197.93 290.736 1199.47 292.71C1200.98 294.551 1202.49 296.391 1204.04 298.288C1206.91 301.793 1209.76 305.317 1212.57 308.869C1219.65 317.583 1227.03 326.049 1234.33 334.572C1235.26 314.226 1236.18 293.88 1237.14 272.918C1243.61 272.918 1250.09 272.918 1256.76 272.918C1256.76 304.361 1256.76 335.805 1256.76 368.202C1234.33 368.202 1234.33 368.202 1229.01 365C1227.84 363.517 1226.68 362.034 1225.47 360.506C1224.12 358.849 1222.76 357.193 1221.36 355.486C1220.04 353.729 1218.71 351.971 1217.34 350.161C1216 348.501 1214.66 346.841 1213.28 345.13C1209.01 339.801 1204.86 334.382 1200.7 328.967C1194.22 320.644 1187.75 312.32 1181.07 303.745C1180.15 325.016 1179.22 346.286 1178.27 368.202C1172.72 368.202 1167.17 368.202 1161.45 368.202C1161.45 336.758 1161.45 305.314 1161.45 272.918Z" fill="#757575"/>
<path d="M35.8071 272.644C39.321 272.653 42.8349 272.662 46.4553 272.671C51.9646 272.706 51.9646 272.706 57.5853 272.742C61.3281 272.756 65.071 272.769 68.8138 272.781C77.9767 272.814 87.1394 272.86 96.3022 272.918C96.3022 279.391 96.3022 285.865 96.3022 292.535C71.3272 292.535 46.3522 292.535 20.6203 292.535C20.6203 311.956 20.6203 331.377 20.6203 351.387C45.5953 351.387 70.5703 351.387 96.3022 351.387C96.3022 356.936 96.3022 362.485 96.3022 368.202C84.4804 368.409 72.6596 368.562 60.8366 368.663C56.8152 368.706 52.794 368.763 48.7731 368.836C42.9909 368.938 37.2103 368.985 31.4273 369.023C27.9484 369.067 24.4695 369.111 20.8852 369.156C12.2112 368.202 12.2112 368.202 6.98089 364.472C-2.03673 351.202 0.373519 334.689 0.298369 319.333C0.240557 316.391 0.182744 313.449 0.12318 310.417C0.108727 307.583 0.0942738 304.749 0.0793827 301.829C0.0531864 299.241 0.0269901 296.653 0 293.986C1.19358 285.557 3.53691 281.813 9.40822 275.72C18.819 272.584 25.8958 272.599 35.8071 272.644Z" fill="#757575"/>
<path d="M499.938 272.918C528.613 272.918 557.288 272.918 586.832 272.918C586.832 279.391 586.832 285.865 586.832 292.535C563.707 292.535 540.582 292.535 516.757 292.535C516.757 299.009 516.757 305.482 516.757 312.152C535.257 312.152 553.757 312.152 572.817 312.152C572.817 317.701 572.817 323.25 572.817 328.967C554.317 328.967 535.817 328.967 516.757 328.967C516.757 341.914 516.757 354.862 516.757 368.202C511.207 368.202 505.657 368.202 499.938 368.202C499.938 336.758 499.938 305.314 499.938 272.918Z" fill="#757575"/>
<path d="M984.863 177.634C999.982 186.62 1013.66 196.918 1026.91 208.461C1025.98 210.31 1025.06 212.16 1024.11 214.066C1020.72 212.884 1017.34 211.703 1013.86 210.486C1009.33 208.934 1004.81 207.383 1000.28 205.834C998.061 205.055 995.842 204.277 993.557 203.474C960.061 192.083 913.878 186.656 880.297 200.415C873.855 203.724 867.721 207.512 861.529 211.263C859.679 210.338 857.829 209.414 855.923 208.461C860.533 203.712 865.187 199.054 869.938 194.448C871.395 193.036 872.851 191.623 874.351 190.168C905.555 161.589 947.414 156.726 984.863 177.634Z" fill="#757575"/>
<path d="M362.47 170.43C367.145 174.131 367.145 174.131 373.802 180.436C373.802 182.286 373.802 184.135 373.802 186.041C359.402 183.437 345.368 180.479 331.406 176.057C319.422 172.379 307.845 169.968 295.317 169.226C292.607 169.046 289.897 168.865 287.105 168.679C258.483 167.65 234.665 175.334 208.423 186.041C221.357 163.411 239.919 151.654 264.484 144.004C300.926 134.229 333.462 149.243 362.47 170.43Z" fill="#757575"/>
<path d="M805.469 272.918C811.019 272.918 816.569 272.918 822.287 272.918C822.426 284.287 822.527 295.655 822.595 307.025C822.623 310.89 822.661 314.755 822.71 318.621C822.778 324.186 822.807 329.751 822.834 335.316C822.878 340.336 822.878 340.336 822.923 345.456C822.311 353.855 821.363 358.494 816.681 365.399C804.508 371.485 788.182 368.845 774.811 368.902C771.43 368.96 768.05 369.018 764.568 369.077C761.332 369.092 758.096 369.106 754.762 369.121C751.789 369.147 748.815 369.173 745.752 369.2C738.196 368.202 738.196 368.202 733.077 364.586C727.9 357.045 727.827 349.113 726.984 340.177C733.459 340.177 739.934 340.177 746.605 340.177C746.605 343.876 746.605 347.575 746.605 351.387C766.03 351.387 785.455 351.387 805.469 351.387C805.469 325.492 805.469 299.597 805.469 272.918Z" fill="#757575"/>
<path d="M368.196 272.918C373.746 272.918 379.296 272.918 385.014 272.918C385.014 298.812 385.014 324.707 385.014 351.387C410.914 351.387 436.814 351.387 463.499 351.387C463.499 356.936 463.499 362.485 463.499 368.202C432.049 368.202 400.599 368.202 368.196 368.202C368.196 336.758 368.196 305.314 368.196 272.918Z" fill="#757575"/>
<path d="M1043.73 166.424C1087.39 163.157 1129 179.973 1167.06 200.053C1167.06 201.903 1167.06 203.753 1167.06 205.658C1121.08 214.111 1089.99 203.59 1052.14 177.634C1049.36 175.784 1046.59 173.934 1043.73 172.029C1043.73 170.179 1043.73 168.329 1043.73 166.424Z" fill="#757575"/>
<path d="M469.105 272.918C474.655 272.918 480.205 272.918 485.923 272.918C485.923 304.361 485.923 335.805 485.923 368.202C480.373 368.202 474.823 368.202 469.105 368.202C469.105 336.758 469.105 305.314 469.105 272.918Z" fill="#757575"/>
<path fill-rule="evenodd" clip-rule="evenodd" d="M184.548 271.919C192.979 273.112 196.723 275.455 202.817 281.325C205.954 290.734 205.939 297.809 205.894 307.718C205.885 311.232 205.876 314.745 205.867 318.365C205.832 323.873 205.832 323.873 205.796 329.493C205.782 333.235 205.769 336.977 205.758 340.718C205.725 349.88 205.678 359.041 205.62 368.202H188.803V337.375H127.136V368.202H110.317C110.109 356.382 109.957 344.564 109.855 332.743C109.813 328.722 109.755 324.702 109.682 320.682C109.58 314.901 109.533 309.121 109.496 303.34C109.452 299.861 109.408 296.383 109.362 292.799C110.317 284.127 110.317 284.127 114.048 278.898C127.321 269.882 143.837 272.293 159.195 272.217C162.138 272.16 165.081 272.101 168.113 272.042C172.365 272.02 172.365 272.02 176.703 271.998C179.292 271.972 181.881 271.946 184.548 271.919ZM127.136 292.535V320.559H185.999V292.535H127.136Z" fill="#757575"/>
<path fill-rule="evenodd" clip-rule="evenodd" d="M1107.88 272.042C1134.49 271.899 1134.49 271.899 1144.64 281.325C1148.03 290.857 1147.76 300.145 1147.71 310.182C1147.7 313.56 1147.69 316.938 1147.68 320.417C1147.65 325.69 1147.65 325.69 1147.61 331.069C1147.6 334.627 1147.59 338.186 1147.58 341.852C1147.54 350.635 1147.5 359.418 1147.44 368.202H1127.82V337.375H1068.95V368.202H1052.14C1051.93 356.382 1051.78 344.563 1051.67 332.743C1051.63 328.722 1051.57 324.702 1051.5 320.682C1051.4 314.901 1051.35 309.121 1051.31 303.339C1051.27 299.861 1051.23 296.383 1051.18 292.799C1052.14 284.127 1052.14 284.127 1055.87 278.898C1068.8 270.115 1084.47 272.294 1099.44 272.217C1103.62 272.131 1103.62 272.13 1107.88 272.042ZM1068.95 292.535V317.757H1127.82V292.535H1068.95Z" fill="#757575"/>
<path fill-rule="evenodd" clip-rule="evenodd" d="M945.62 275.72C953.358 267.984 976.551 272.119 986.965 272.042C992.385 271.92 992.385 271.92 997.914 271.795C1003.14 271.76 1003.14 271.76 1008.47 271.724C1011.67 271.683 1014.86 271.642 1018.16 271.6C1028.83 273.206 1033.44 276.458 1040.92 284.127C1042.59 293.411 1042.59 293.411 1042.33 303.745C1042.3 307.155 1042.27 310.565 1042.24 314.079C1040.87 323.761 1039.42 327.796 1032.51 334.572C1024.27 337.319 1018.99 337.7 1010.41 337.648C1007.78 337.639 1005.15 337.63 1002.44 337.621C999.705 337.597 996.967 337.574 994.147 337.549C991.378 337.537 988.608 337.524 985.755 337.511C978.917 337.478 972.079 337.428 965.241 337.375V368.202H945.62C945.551 355.082 945.501 341.963 945.467 328.843C945.453 324.377 945.433 319.91 945.409 315.444C945.375 309.037 945.359 302.631 945.347 296.224C945.332 294.216 945.318 292.207 945.303 290.138C945.302 285.331 945.446 280.524 945.62 275.72ZM965.242 292.535V317.757H1024.11V292.535H965.242Z" fill="#757575"/>
<path fill-rule="evenodd" clip-rule="evenodd" d="M910.215 271.6C920.289 273.399 924.729 276.575 931.605 284.128C933.196 293.118 933.196 293.118 932.974 303.613C932.954 305.463 932.934 307.314 932.914 309.22C932.836 315.105 932.66 320.982 932.481 326.865C932.411 330.864 932.347 334.864 932.29 338.863C932.136 348.645 931.894 358.423 931.605 368.202H914.787V337.375H855.924V368.202H836.302C836.057 355.416 835.908 342.63 835.776 329.842C835.706 326.217 835.636 322.592 835.563 318.857C835.536 315.362 835.509 311.867 835.481 308.266C835.437 305.052 835.393 301.838 835.348 298.526C836.415 288.692 838.669 283.497 844.711 275.72C857.897 271.326 871.193 272.169 885.005 272.042C887.924 271.96 890.844 271.879 893.851 271.796C896.677 271.772 899.503 271.748 902.414 271.724C904.988 271.683 907.563 271.642 910.215 271.6ZM855.924 292.535V317.758H914.787V292.535H855.924Z" fill="#757575"/>
<path fill-rule="evenodd" clip-rule="evenodd" d="M292.188 271.964C301.708 273.004 305.482 274.561 312.136 281.325C315.104 290.227 315.501 297.018 315.64 306.372C315.712 309.287 315.784 312.203 315.858 315.207C314.814 324.47 313.447 328.332 306.529 334.572C298.996 335.273 298.996 335.273 292.515 334.572C294.133 336.53 295.752 338.488 297.42 340.506C299.501 343.056 301.582 345.606 303.726 348.234C305.808 350.77 307.889 353.306 310.033 355.919C314.938 362.596 314.938 362.597 314.938 368.202C301.035 370.684 301.035 370.684 292.515 368.202C287.215 362.06 287.215 362.06 282.003 354.364C275.378 344.972 272.403 340.824 261.199 337.692C252.852 337.095 244.805 336.902 236.454 337.375V368.202H219.636V272.918C239.407 272.658 239.408 272.658 259.579 272.392C263.721 272.316 267.863 272.239 272.13 272.16C275.402 272.139 278.675 272.118 282.047 272.096C285.393 272.052 288.74 272.009 292.188 271.964ZM236.454 292.535V317.758H295.317V292.535H236.454Z" fill="#757575"/>
</svg>
